# xmcd
#
# Track frame offsets:
#	150
#	18485
#	33725
#	49535
#	72087
#	87285
#	106842
#	120660
#	134877
#	143367
#	152500
#	161655
#	174930
#	192075
#	207965
#	215935
#	223067
#	236060
#	244622
#	252557
#	271232
#	287752
#	314177
#
# Disc length: 4569
#
# Revision: 3
# Processed by: cddbd v1.5.1PL0 Copyright (c) Steve Scherf et al.
# Submitted via: CDex 1.50Beta5
# Normalized: r2:DSETVAR1
#
DISCID=5d11d717
DTITLE=Various Artist - Dancemania Presents Club THE Earth
DYEAR=1900
DGENRE=Dance
TTITLE0=PET Shop Boys - NEW York City (The Almighty Definitive Mix Radio Edit)
TTITLE1=X-Treme - Wonderland (UKS Mix)
TTITLE2=Joe T. Vannelli Project - Sweetest Day Of May
TTITLE3=Abigail - LET THE JOY RISE(Thunderpuss 2000 Club Mix)
TTITLE4=Grow Sound With Brenda - WHY (DJ-Turbo Raise Your Hands Mix)
TTITLE5=Rozalla - Everybody's Free (TO Feel Good)(DJ Soma Grow Sound Remix)
TTITLE6=Maxx'n Cala - Retro Fire (Scorccio Hot Mix)
TTITLE7=THE Salsoul Orchestra Featuring Loleatta Holloway - Runaway
TTITLE8=Freedom - Get Up And Dance
TTITLE9=K. C. and THE Sunshine Band - That's THE WAY (I Like IT)
TTITLE10=Arthur Baker - Breaker's Revenge (Freestylers Remix)
TTITLE11=Template Featuring M. C. TIZ - Ride THE Stuff
TTITLE12=Lovestation - Best OF MY Love (Venus Mix)
TTITLE13=Loleatta Holloway - Love Sensation (DJ Soma Grow Sound Remix)
TTITLE14=Wisdome - Off The Wall
TTITLE15=Instant Funk - I GOT MY Mind Made UP (DJ Soma Grow Sound Remix)
TTITLE16=Trickster - Stomp (Lisa Marie Vocal Experience)
TTITLE17=Koko And Leroy - Jarzinho
TTITLE18=Bellini - Samba De Janeiro
TTITLE19=Beat BOX - Can't Take MY Eyes OFF YOU (70's Remix)
TTITLE20=Faye Wong - Eyes ON ME Featured In Final Fantasy VIII (Almighty Mix)
TTITLE21=Strike - Inspiration (Kaleidoscopic Backdrop Mix)
TTITLE22=Grow Sound Featuring Brenda - YOU Bring ME JOY
EXTD=
EXTT0=
EXTT1=
EXTT2=
EXTT3=
EXTT4=
EXTT5=
EXTT6=
EXTT7=
EXTT8=
EXTT9=
EXTT10=
EXTT11=
EXTT12=
EXTT13=
EXTT14=
EXTT15=
EXTT16=
EXTT17=
EXTT18=
EXTT19=
EXTT20=
EXTT21=
EXTT22=
PLAYORDER=
